<svg xmlns="http://www.w3.org/2000/svg" viewBox="0 0 512 512">
  <defs>
    <linearGradient id="bg" x1="0" y1="0" x2="0" y2="1">
      <stop offset="0%" stop-color="#8fd6ff" />
      <stop offset="100%" stop-color="#5fbe75" />
    </linearGradient>
    <linearGradient id="fur" x1="0" y1="0" x2="0" y2="1">
      <stop offset="0%" stop-color="#dc9254" />
      <stop offset="100%" stop-color="#a45a2a" />
    </linearGradient>
  </defs>
  <rect width="512" height="512" rx="110" fill="url(#bg)" />
  <ellipse cx="256" cy="438" rx="200" ry="42" fill="#2f7d4a" opacity="0.45" />
  <rect x="228" y="240" width="98" height="136" rx="42" fill="url(#fur)" />
  <path d="M337 262c66-20 102 60 53 106-28 26-77 14-84-23 4-8 12-14 22-16 19 10 42 6 50-12 10-24-11-44-41-36z" fill="#a45a2a" />
  <circle cx="254" cy="286" r="11" fill="#1b2619" />
  <path d="M231 328c27 24 63 24 88 0" fill="none" stroke="#6f3d21" stroke-width="12" stroke-linecap="round" />
  <circle cx="286" cy="216" r="42" fill="#b66b38" />
  <path d="M286 172l18 22 28 6-20 20 3 28-25-13-25 13 3-28-20-20 28-6z" fill="#f3be67" />
</svg>
